<svg version="1.1" viewBox="0.0 0.0 961.3333333333334 261.0997375328084" fill="none" stroke="none" stroke-linecap="square" stroke-miterlimit="10" xmlns:xlink="http://www.w3.org/1999/xlink" xmlns="http://www.w3.org/2000/svg"><clipPath id="p.0"><path d="m0 0l961.3333 0l0 261.09973l-961.3333 0l0 -261.09973z" clip-rule="nonzero"/></clipPath><g clip-path="url(#p.0)"><path fill="#d9d9d9" d="m0 0l961.3333 0l0 261.09973l-961.3333 0z" fill-rule="evenodd"/><g filter="url(#shadowFilter-p.1)"><use xlink:href="#p.1" transform="matrix(1.0 0.0 0.0 1.0 0.0 2.0)"/></g><defs><filter id="shadowFilter-p.1" filterUnits="userSpaceOnUse"><feGaussianBlur in="SourceAlpha" stdDeviation="2.0" result="blur"/><feComponentTransfer in="blur" color-interpolation-filters="sRGB"><feFuncR type="linear" slope="0" intercept="0.0"/><feFuncG type="linear" slope="0" intercept="0.0"/><feFuncB type="linear" slope="0" intercept="0.0"/><feFuncA type="linear" slope="0.5" intercept="0"/></feComponentTransfer></filter></defs><g id="p.1"><path fill="#cfe2f3" d="m31.648294 38.079105l0 0c0 -10.106577 8.192999 -18.299578 18.299578 -18.299578l876.2827 0c4.8533936 0 9.507935 1.9279861 12.939758 5.359823c3.4318237 3.4318352 5.3598633 8.086407 5.3598633 12.9397545l0 73.19612c0 10.106583 -8.193054 18.299576 -18.299622 18.299576l-876.2827 0c-10.106579 0 -18.299578 -8.192993 -18.299578 -18.299576z" fill-rule="evenodd"/><path stroke="#000000" stroke-width="1.0" stroke-linejoin="round" stroke-linecap="butt" d="m31.648294 38.079105l0 0c0 -10.106577 8.192999 -18.299578 18.299578 -18.299578l876.2827 0c4.8533936 0 9.507935 1.9279861 12.939758 5.359823c3.4318237 3.4318352 5.3598633 8.086407 5.3598633 12.9397545l0 73.19612c0 10.106583 -8.193054 18.299576 -18.299622 18.299576l-876.2827 0c-10.106579 0 -18.299578 -8.192993 -18.299578 -18.299576z" fill-rule="evenodd"/><path fill="#ff9900" d="m169.3728 104.55404l-4.25 0l-12.703125 -36.703125l-12.359375 36.703125l-4.25 0l-19.09375 -58.96875l10.75 0l10.921875 35.09375l11.796875 -35.09375l4.53125 0l11.828125 35.09375l10.890625 -35.09375l10.75 0l-18.8125 58.96875zm22.189407 -30.375q0 -12.4375 6.8125 -21.03125q6.8125 -8.59375 18.203125 -8.59375q12.5625 0 19.1875 7.78125q6.625 7.78125 6.625 21.84375q0 14.046875 -6.9375 22.3125q-6.921875 8.265625 -19.65625 8.265625q-11.71875 0 -17.984375 -8.1875q-6.25 -8.1875 -6.25 -22.390625zm10.734375 0q0 10.203125 3.453125 15.796875q3.453125 5.59375 10.046875 5.59375q7.734375 0 11.796875 -5.46875q4.078125 -5.484375 4.078125 -15.921875q0 -20.453125 -15.09375 -20.453125q-6.90625 0 -10.59375 5.546875q-3.6875 5.53125 -3.6875 14.90625zm82.04323 29.578125l-15.53125 -24.03125q-2.34375 -0.03125 -6.5625 -0.265625l0 24.296875l-10.718765 0l0 -58.171875q0.875 0 6.7031403 -0.296875q5.84375 -0.296875 9.421875 -0.296875q22.15625 0 22.15625 17.15625q0 5.15625 -3.0625 9.40625q-3.046875 4.25 -7.703125 6.0l17.203094 26.203125l-11.9062195 0zm-22.09375 -49.203125l0 16.15625q2.859375 0.25 4.375 0.25q6.46875 0 9.46875 -1.828125q3.0 -1.828125 3.0 -7.109375q0 -4.296875 -3.21875 -6.0q-3.21875 -1.703125 -10.125 -1.703125q-1.671875 0 -3.5 0.234375zm71.95969 49.203125l-16.203125 -24.78125l-6.46875 8.859375l0 15.921875l-10.328125 0l0 -58.171875l10.328125 0l0 27.828125l19.78125 -27.828125l11.75 0l-18.234375 25.40625l21.734375 32.765625l-12.359375 0zm41.899536 0l0 -58.171875l10.328125 0l0 58.171875l-10.328125 0zm60.604004 0.796875l-28.234375 -36.8125l0 36.0625l-9.9375 0l0 -58.21875l4.96875 0l27.484375 35.09375l0 -35.09375l9.921875 0l0 58.96875l-4.203125 0zm50.94287 -22.203125l0 21.40625l-10.328125 0l0 -58.140625q10.328125 -0.4375 12.078125 -0.4375q13.78125 0 20.15625 4.234375q6.375 4.234375 6.375 13.203125q0 20.015625 -23.59375 20.015625q-1.75 0 -4.6875 -0.28125zm0 -27.796875l0 18.625q2.625 0.28125 4.125 0.28125q7.078125 0 10.328125 -2.359375q3.265625 -2.375 3.265625 -7.6875q0 -9.0625 -14.578125 -9.0625q-1.625 0 -3.140625 0.203125zm70.21698 49.203125l-15.53125 -24.03125q-2.34375 -0.03125 -6.5625 -0.265625l0 24.296875l-10.71875 0l0 -58.171875q0.875 0 6.703125 -0.296875q5.84375 -0.296875 9.421875 -0.296875q22.15625 0 22.15625 17.15625q0 5.15625 -3.0625 9.40625q-3.046875 4.25 -7.703125 6.0l17.203125 26.203125l-11.90625 0zm-22.09375 -49.203125l0 16.15625q2.859375 0.25 4.375 0.25q6.46875 0 9.46875 -1.828125q3.0 -1.828125 3.0 -7.109375q0 -4.296875 -3.21875 -6.0q-3.21875 -1.703125 -10.125 -1.703125q-1.671875 0 -3.5 0.234375zm36.178467 19.625q0 -12.4375 6.8125 -21.03125q6.8125 -8.59375 18.203125 -8.59375q12.5625 0 19.1875 7.78125q6.625 7.78125 6.625 21.84375q0 14.046875 -6.9375 22.3125q-6.921875 8.265625 -19.65625 8.265625q-11.71875 0 -17.984375 -8.1875q-6.25 -8.1875 -6.25 -22.390625zm10.734375 0q0 10.203125 3.453125 15.796875q3.453125 5.59375 10.046875 5.59375q7.734375 0 11.796875 -5.46875q4.078125 -5.484375 4.078125 -15.921875q0 -20.453125 -15.09375 -20.453125q-6.90625 0 -10.59375 5.546875q-3.6875 5.53125 -3.6875 14.90625zm92.19946 -23.875l-4.328125 8.296875q-1.828125 -1.625 -5.640625 -3.234375q-3.8125 -1.609375 -6.546875 -1.609375q-8.578125 0 -13.546875 5.828125q-4.953125 5.8125 -4.953125 15.578125q0 9.296875 4.859375 14.859375q4.859375 5.546875 13.234375 5.546875q5.53125 0 9.09375 -3.015625l0 -11.4375l-8.046875 0l0 -8.8125l18.375 0l0 26.046875q-3.6875 3.03125 -9.515625 4.71875q-5.8125 1.6875 -11.5625 1.6875q-12.515625 0 -19.84375 -8.203125q-7.328125 -8.203125 -7.328125 -21.671875q0 -13.453125 7.984375 -21.875q7.984375 -8.421875 21.484375 -8.421875q9.578125 0 16.28125 5.71875zm44.44641 53.453125l-15.53125 -24.03125q-2.34375 -0.03125 -6.5625 -0.265625l0 24.296875l-10.71875 0l0 -58.171875q0.875 0 6.703125 -0.296875q5.84375 -0.296875 9.421875 -0.296875q22.15625 0 22.15625 17.15625q0 5.15625 -3.0625 9.40625q-3.046875 4.25 -7.703125 6.0l17.203125 26.203125l-11.90625 0zm-22.09375 -49.203125l0 16.15625q2.859375 0.25 4.375 0.25q6.46875 0 9.46875 -1.828125q3.0 -1.828125 3.0 -7.109375q0 -4.296875 -3.21875 -6.0q-3.21875 -1.703125 -10.125 -1.703125q-1.671875 0 -3.5 0.234375zm49.28784 0.203125l0 13.625l19.21875 0l0 8.765625l-19.21875 0l0 17.4375l26.375 0l0 9.171875l-36.703125 0l0 -58.171875l37.140625 0l0 9.171875l-26.8125 0zm33.15393 45.78125l3.8125 -9.25q6.125 4.28125 12.03125 4.28125q9.09375 0 9.09375 -6.34375q0 -2.984375 -2.140625 -5.671875q-2.140625 -2.703125 -8.84375 -6.0625q-6.6875 -3.359375 -9.015625 -5.515625q-2.3125 -2.171875 -3.5625 -5.140625q-1.25 -2.984375 -1.25 -6.59375q0 -6.765625 4.9375 -11.203125q4.953125 -4.453125 12.6875 -4.453125q10.09375 0 14.8125 3.78125l-3.125 8.890625q-5.453125 -3.890625 -11.484375 -3.890625q-3.578125 0 -5.546875 1.890625q-1.953125 1.875 -1.953125 4.890625q0 5.015625 11.078125 10.40625q5.828125 2.859375 8.40625 5.265625q2.59375 2.40625 3.9375 5.609375q1.359375 3.1875 1.359375 7.125q0 7.0625 -5.59375 11.640625q-5.578125 4.5625 -14.9375 4.5625q-8.140625 0 -14.703125 -4.21875zm41.577393 0l3.8125 -9.25q6.125 4.28125 12.03125 4.28125q9.09375 0 9.09375 -6.34375q0 -2.984375 -2.140625 -5.671875q-2.140625 -2.703125 -8.84375 -6.0625q-6.6875 -3.359375 -9.015625 -5.515625q-2.3125 -2.171875 -3.5625 -5.140625q-1.25 -2.984375 -1.25 -6.59375q0 -6.765625 4.9375 -11.203125q4.953125 -4.453125 12.6875 -4.453125q10.09375 0 14.8125 3.78125l-3.125 8.890625q-5.453125 -3.890625 -11.484375 -3.890625q-3.578125 0 -5.546875 1.890625q-1.953125 1.875 -1.953125 4.890625q0 5.015625 11.078125 10.40625q5.828125 2.859375 8.40625 5.265625q2.59375 2.40625 3.9375 5.609375q1.359375 3.1875 1.359375 7.125q0 7.0625 -5.59375 11.640625q-5.578125 4.5625 -14.9375 4.5625q-8.140625 0 -14.703125 -4.21875z" fill-rule="nonzero"/></g><path fill="#000000" fill-opacity="0.0" d="m591.44354 135.49344l349.1339 0l0 116.34645l-349.1339 0z" fill-rule="evenodd"/><path fill="#ff9900" d="m608.7873 175.56218q-2.34375 0 -3.9375 -1.125q-1.59375 -1.109375 -1.59375 -3.015625q0 -0.9375 0.484375 -2.75q0.484375 -1.828125 0.484375 -2.765625q0 -2.15625 -2.734375 -2.328125l0 -1.765625q2.734375 -0.1875 2.734375 -2.53125q0 -0.84375 -0.484375 -2.4375q-0.484375 -1.59375 -0.484375 -2.421875q0 -1.8125 1.59375 -2.890625q1.609375 -1.09375 3.8125 -1.09375l2.328125 0l0 2.4375l-2.671875 0q-1.75 0 -1.75 1.9375q0 0.734375 0.40625 2.125q0.421875 1.375 0.421875 2.109375q0 2.0 -2.5 3.578125q2.5 1.296875 2.5 3.203125q0 0.796875 -0.421875 2.359375q-0.40625 1.5625 -0.40625 2.34375q0 0.921875 0.375 1.5q0.390625 0.578125 1.109375 0.78125q0.734375 0.21875 2.9375 0.21875l0 2.53125l-2.203125 0zm13.38562 -6.90625l1.34375 -2.796875q2.078125 1.625 3.5625 1.625q3.28125 0 3.28125 -4.046875q0 -1.9375 -0.75 -2.828125q-0.734375 -0.890625 -2.484375 -0.890625q-1.578125 0 -3.078125 1.546875l-1.328125 -0.875l0 -9.4375l10.265625 0l0 2.875l-7.015625 0l0 3.40625q0.859375 -0.390625 2.046875 -0.390625q2.8125 0 4.328125 1.625q1.515625 1.625 1.515625 4.609375q0 7.28125 -6.78125 7.28125q-2.796875 0 -4.90625 -1.703125zm18.056396 -9.0q-1.03125 -0.703125 -1.703125 -1.859375q-0.65625 -1.15625 -0.65625 -2.3125q0 -2.203125 1.546875 -3.5q1.5625 -1.296875 3.984375 -1.296875q2.625 0 4.09375 1.296875q1.46875 1.296875 1.46875 3.5q0 1.171875 -0.828125 2.46875q-0.8125 1.28125 -1.78125 1.8125q1.234375 0.5625 2.28125 2.0625q1.046875 1.5 1.046875 2.8125q0 2.703125 -1.703125 4.21875q-1.703125 1.5 -4.640625 1.5q-2.953125 0 -4.5625 -1.46875q-1.609375 -1.484375 -1.609375 -4.25q0 -1.4375 0.859375 -2.8125q0.859375 -1.375 2.203125 -2.171875zm3.484375 -1.296875q0.734375 -0.34375 1.296875 -1.25q0.5625 -0.921875 0.5625 -1.671875q0 -0.859375 -0.59375 -1.359375q-0.59375 -0.515625 -1.578125 -0.515625q-2.15625 0 -2.15625 1.890625q0 0.828125 0.796875 1.703125q0.796875 0.859375 1.671875 1.203125zm-0.671875 2.65625q-2.484375 1.40625 -2.484375 3.625q0 1.21875 0.765625 2.03125q0.78125 0.8125 2.015625 0.8125q1.3125 0 2.125 -0.703125q0.828125 -0.71875 0.828125 -1.875q0 -1.984375 -3.25 -3.890625zm12.8063965 -1.359375q-1.03125 -0.703125 -1.703125 -1.859375q-0.65625 -1.15625 -0.65625 -2.3125q0 -2.203125 1.546875 -3.5q1.5625 -1.296875 3.984375 -1.296875q2.625 0 4.09375 1.296875q1.46875 1.296875 1.46875 3.5q0 1.171875 -0.828125 2.46875q-0.8125 1.28125 -1.78125 1.8125q1.234375 0.5625 2.28125 2.0625q1.046875 1.5 1.046875 2.8125q0 2.703125 -1.703125 4.21875q-1.703125 1.5 -4.640625 1.5q-2.953125 0 -4.5625 -1.46875q-1.609375 -1.484375 -1.609375 -4.25q0 -1.4375 0.859375 -2.8125q0.859375 -1.375 2.203125 -2.171875zm3.484375 -1.296875q0.734375 -0.34375 1.296875 -1.25q0.5625 -0.921875 0.5625 -1.671875q0 -0.859375 -0.59375 -1.359375q-0.59375 -0.515625 -1.578125 -0.515625q-2.15625 0 -2.15625 1.890625q0 0.828125 0.796875 1.703125q0.796875 0.859375 1.671875 1.203125zm-0.671875 2.65625q-2.484375 1.40625 -2.484375 3.625q0 1.21875 0.765625 2.03125q0.78125 0.8125 2.015625 0.8125q1.3125 0 2.125 -0.703125q0.828125 -0.71875 0.828125 -1.875q0 -1.984375 -3.25 -3.890625zm10.4938965 -3.171875q0 -0.96875 0.671875 -1.65625q0.6875 -0.6875 1.671875 -0.6875q0.96875 0 1.65625 0.6875q0.6875 0.6875 0.6875 1.65625q0 0.984375 -0.6875 1.671875q-0.6875 0.6875 -1.65625 0.6875q-0.984375 0 -1.671875 -0.6875q-0.671875 -0.6875 -0.671875 -1.671875zm0 10.546875q0 -0.984375 0.671875 -1.65625q0.6875 -0.6875 1.671875 -0.6875q0.96875 0 1.65625 0.6875q0.6875 0.671875 0.6875 1.65625q0 0.96875 -0.6875 1.671875q-0.6875 0.6875 -1.65625 0.6875q-0.984375 0 -1.671875 -0.6875q-0.671875 -0.703125 -0.671875 -1.671875zm28.256042 1.703125l-5.09375 -7.875q-0.765625 -0.015625 -2.140625 -0.09375l0 7.96875l-3.515625 0l0 -19.0625q0.28125 0 2.1875 -0.09375q1.921875 -0.109375 3.09375 -0.109375q7.265625 0 7.265625 5.625q0 1.6875 -1.0 3.09375q-1.0 1.390625 -2.53125 1.953125l5.640625 8.59375l-3.90625 0zm-7.234375 -16.125l0 5.296875q0.9375 0.078125 1.421875 0.078125q2.125 0 3.109375 -0.59375q0.984375 -0.609375 0.984375 -2.328125q0 -1.40625 -1.0625 -1.96875q-1.046875 -0.5625 -3.3125 -0.5625q-0.546875 0 -1.140625 0.078125zm21.532715 16.125l0 -0.84375q-0.390625 0.4375 -1.359375 0.78125q-0.96875 0.328125 -2.0 0.328125q-2.90625 0 -4.578125 -1.84375q-1.671875 -1.859375 -1.671875 -5.15625q0 -3.3125 1.921875 -5.390625q1.921875 -2.078125 4.796875 -2.078125q1.59375 0 2.890625 0.65625l0 -5.59375l3.265625 -0.78125l0 19.921875l-3.265625 0zm0 -10.609375q-1.03125 -0.828125 -2.171875 -0.828125q-1.953125 0 -3.015625 1.1875q-1.046875 1.1875 -1.046875 3.421875q0 4.34375 4.203125 4.34375q0.46875 0 1.140625 -0.28125q0.6875 -0.28125 0.890625 -0.5625l0 -7.28125zm12.538208 10.609375l-5.828125 0l0 -19.0625q3.859375 -0.171875 5.40625 -0.171875q2.96875 0 4.640625 1.265625q1.671875 1.265625 1.671875 3.625q0 2.265625 -2.40625 3.578125q3.5625 1.234375 3.5625 5.109375q0 2.59375 -1.96875 4.125q-1.96875 1.53125 -5.078125 1.53125zm-2.4375 -16.34375l0 4.5625q0.78125 0.046875 1.625 0.046875q3.3125 0 3.3125 -2.484375q0 -2.1875 -3.0 -2.1875q-0.796875 0 -1.9375 0.0625zm0 7.203125l0 6.296875q1.015625 0.09375 1.65625 0.09375q2.265625 0 3.28125 -0.765625q1.03125 -0.765625 1.03125 -2.546875q0 -1.625 -0.953125 -2.359375q-0.953125 -0.75 -3.3125 -0.75q-0.5 0 -1.703125 0.03125zm13.350586 14.015625l-1.109375 -1.421875q2.375 -1.78125 2.375 -2.796875q0 -0.390625 -0.265625 -0.765625q-1.234375 -0.609375 -1.234375 -1.6875q0 -0.78125 0.640625 -1.296875q0.65625 -0.515625 1.625 -0.515625q0.890625 0 1.5625 0.6875q0.671875 0.6875 0.671875 1.578125q0 1.65625 -0.78125 3.015625q-0.765625 1.359375 -3.484375 3.203125z" fill-rule="nonzero"/><path fill="#ff9900" d="m628.5982 201.3278l-0.734375 1.03125l-1.828125 0l0 -19.40625l3.25 -0.78125l0 6.515625q1.296875 -0.796875 2.84375 -0.796875q3.046875 0 4.921875 1.9375q1.875 1.9375 1.875 4.953125q0 3.5 -1.890625 5.546875q-1.875 2.03125 -5.109375 2.03125q-1.9375 0 -3.328125 -1.03125zm0.6875 -9.859375l0 7.28125q0.71875 0.84375 1.9375 0.84375q2.359375 0 3.34375 -1.109375q0.984375 -1.125 0.984375 -3.59375q0 -4.234375 -4.0625 -4.234375q-1.453125 0 -2.203125 0.8125zm18.673645 12.859375q-0.515625 1.390625 -2.234375 2.3125q-1.703125 0.921875 -3.984375 0.921875l0 -2.875q3.765625 0 3.765625 -1.890625q0 -1.25 -1.046875 -3.828125l-4.359375 -10.8125l3.375 0l3.796875 9.625l3.421875 -9.625l3.375 0l-6.109375 16.171875zm8.569946 -14.484375q0 -0.96875 0.671875 -1.65625q0.6875 -0.6875 1.671875 -0.6875q0.96875 0 1.65625 0.6875q0.6875 0.6875 0.6875 1.65625q0 0.984375 -0.6875 1.671875q-0.6875 0.6875 -1.65625 0.6875q-0.984375 0 -1.671875 -0.6875q-0.671875 -0.6875 -0.671875 -1.671875zm0 10.546875q0 -0.984375 0.671875 -1.65625q0.6875 -0.6875 1.671875 -0.6875q0.96875 0 1.65625 0.6875q0.6875 0.671875 0.6875 1.65625q0 0.96875 -0.6875 1.671875q-0.6875 0.6875 -1.65625 0.6875q-0.984375 0 -1.671875 -0.6875q-0.671875 -0.703125 -0.671875 -1.671875zm17.506042 7.171875l0 -25.125l6.8125 0l0 2.90625l-3.421875 0l0 19.3125l3.421875 0l0 2.90625l-6.8125 0zm23.774475 -23.515625l-1.390625 2.796875q-1.125 -1.140625 -3.640625 -1.140625q-2.390625 0 -3.90625 2.0q-1.515625 2.0 -1.515625 5.0625q0 3.046875 1.40625 4.84375q1.40625 1.796875 3.765625 1.796875q2.703125 0 4.21875 -1.921875l1.578125 2.734375q-2.078125 2.203125 -6.0625 2.203125q-4.0 0 -6.21875 -2.625q-2.203125 -2.640625 -2.203125 -7.171875q0 -4.234375 2.453125 -7.078125q2.453125 -2.84375 6.28125 -2.84375q3.28125 0 5.234375 1.34375zm15.496216 12.078125l-9.953125 0q0.078125 1.65625 1.125 2.59375q1.0625 0.921875 2.84375 0.921875q2.234375 0 3.390625 -1.171875l1.265625 2.5q-1.71875 1.390625 -5.125 1.390625q-3.1875 0 -5.046875 -1.859375q-1.859375 -1.875 -1.859375 -5.21875q0 -3.296875 2.03125 -5.34375q2.046875 -2.046875 4.890625 -2.046875q3.03125 0 4.859375 1.8125q1.84375 1.8125 1.84375 4.609375q0 0.59375 -0.265625 1.8125zm-9.84375 -2.453125l6.84375 0q-0.328125 -3.0625 -3.375 -3.0625q-2.796875 0 -3.46875 3.0625zm7.28125 -11.203125l-2.953125 3.8125l-2.46875 0l2.203125 -3.8125l3.21875 0zm14.397705 19.625l0 -0.84375q-0.390625 0.4375 -1.359375 0.78125q-0.96875 0.328125 -2.0 0.328125q-2.90625 0 -4.578125 -1.84375q-1.671875 -1.859375 -1.671875 -5.15625q0 -3.3125 1.921875 -5.390625q1.921875 -2.078125 4.796875 -2.078125q1.59375 0 2.890625 0.65625l0 -5.59375l3.265625 -0.78125l0 19.921875l-3.265625 0zm0 -10.609375q-1.03125 -0.828125 -2.171875 -0.828125q-1.953125 0 -3.015625 1.1875q-1.046875 1.1875 -1.046875 3.421875q0 4.34375 4.203125 4.34375q0.46875 0 1.140625 -0.28125q0.6875 -0.28125 0.890625 -0.5625l0 -7.28125zm14.569458 -0.296875q-0.875 -0.578125 -1.90625 -0.578125q-1.140625 0 -2.015625 1.03125q-0.875 1.03125 -0.875 2.515625l0 7.9375l-3.265625 0l0 -13.9375l3.265625 0l0 1.265625q1.359375 -1.53125 3.625 -1.53125q1.671875 0 2.546875 0.515625l-1.375 2.78125zm5.888794 -8.4375q0.78125 0 1.328125 0.5625q0.5625 0.546875 0.5625 1.328125q0 0.78125 -0.5625 1.34375q-0.546875 0.546875 -1.328125 0.546875q-0.78125 0 -1.34375 -0.546875q-0.546875 -0.5625 -0.546875 -1.34375q0 -0.78125 0.546875 -1.328125q0.5625 -0.5625 1.34375 -0.5625zm-1.6875 19.34375l0 -11.265625l-1.78125 0l0 -2.671875l5.078125 0l0 13.9375l-3.296875 0zm18.015076 -12.828125l-1.390625 2.421875q-1.140625 -1.078125 -3.078125 -1.078125q-1.84375 0 -2.921875 1.234375q-1.0625 1.234375 -1.0625 3.40625q0 4.390625 4.171875 4.390625q1.8125 0 3.1875 -1.203125l1.203125 2.5625q-1.421875 0.890625 -2.484375 1.125q-1.0625 0.234375 -2.5 0.234375q-3.234375 0 -5.109375 -1.875q-1.859375 -1.890625 -1.859375 -5.234375q0 -3.296875 2.046875 -5.328125q2.046875 -2.03125 5.5625 -2.03125q2.4375 0 4.234375 1.375zm2.374878 6.625l0 -3.046875l6.875 0l0 3.046875l-6.875 0zm24.397217 -11.3125l-1.421875 2.71875q-0.59375 -0.53125 -1.84375 -1.0625q-1.25 -0.53125 -2.140625 -0.53125q-2.8125 0 -4.4375 1.90625q-1.625 1.90625 -1.625 5.109375q0 3.046875 1.59375 4.875q1.59375 1.8125 4.328125 1.8125q1.8125 0 2.984375 -0.984375l0 -3.75l-2.640625 0l0 -2.890625l6.03125 0l0 8.546875q-1.21875 0.984375 -3.125 1.546875q-1.90625 0.546875 -3.796875 0.546875q-4.09375 0 -6.5 -2.6875q-2.390625 -2.6875 -2.390625 -7.109375q0 -4.40625 2.609375 -7.15625q2.625 -2.765625 7.046875 -2.765625q3.125 0 5.328125 1.875zm14.9435425 17.515625l-1.390625 -3.859375l-6.53125 0l-1.328125 3.859375l-3.765625 0l7.609375 -19.328125l1.484375 0l7.65625 19.328125l-3.734375 0zm-4.671875 -13.5l-2.28125 7.046875l4.578125 0l-2.296875 -7.046875zm10.428284 -5.5625l3.390625 0l0 12.921875q0 1.53125 0.921875 2.5q0.9375 0.953125 2.578125 0.953125q1.84375 0 2.859375 -0.9375q1.03125 -0.9375 1.03125 -2.578125l0 -12.859375l3.375 0l0 13.109375q0 2.953125 -1.96875 4.625q-1.96875 1.65625 -5.265625 1.65625q-3.3125 0 -5.125 -1.625q-1.796875 -1.625 -1.796875 -4.671875l0 -13.09375zm25.815857 3.0l0 16.0625l-3.375 0l0 -16.0625l-6.0625 0l0 -3.0l15.78125 0l0 3.0l-6.34375 0zm19.527466 16.0625l0 -8.59375l-7.578064 0l0 8.59375l-3.390625 0l0 -19.0625l3.390625 0l0 7.46875l7.578064 0l0 -7.46875l3.34375 0l0 19.0625l-3.34375 0zm7.315796 0l0 -19.0625l3.390625 0l0 19.0625l-3.390625 0zm10.747131 -16.0625l0 4.46875l6.296875 0l0 2.875l-6.296875 0l0 5.71875l8.640625 0l0 3.0l-12.03125 0l0 -19.0625l12.171875 0l0 3.0l-8.78125 0zm22.522705 16.0625l-5.09375 -7.875q-0.765625 -0.015625 -2.140625 -0.09375l0 7.96875l-3.515625 0l0 -19.0625q0.28125 0 2.1875 -0.09375q1.921875 -0.109375 3.09375 -0.109375q7.265625 0 7.265625 5.625q0 1.6875 -1.0 3.09375q-1.0 1.390625 -2.53125 1.953125l5.640625 8.59375l-3.90625 0zm-7.234375 -16.125l0 5.296875q0.9375 0.078125 1.421875 0.078125q2.125 0 3.109375 -0.59375q0.984375 -0.609375 0.984375 -2.328125q0 -1.40625 -1.0625 -1.96875q-1.046875 -0.5625 -3.3125 -0.5625q-0.546875 0 -1.140625 0.078125zm19.57959 21.59375l-6.8125 0l0 -2.90625l3.421875 0l0 -19.3125l-3.421875 0l0 -2.90625l6.8125 0l0 25.125zm4.774475 -0.59375l-1.109375 -1.421875q2.375 -1.78125 2.375 -2.796875q0 -0.390625 -0.265625 -0.765625q-1.234375 -0.609375 -1.234375 -1.6875q0 -0.78125 0.640625 -1.296875q0.65625 -0.515625 1.625 -0.515625q0.890625 0 1.5625 0.6875q0.671875 0.6875 0.671875 1.578125q0 1.65625 -0.78125 3.015625q-0.765625 1.359375 -3.484375 3.203125z" fill-rule="nonzero"/><path fill="#ff9900" d="m610.9904 227.5778q-2.71875 0.171875 -2.71875 2.328125q0 0.9375 0.46875 2.765625q0.484375 1.8125 0.484375 2.75q0 1.90625 -1.59375 3.015625q-1.59375 1.125 -3.9375 1.125l-2.203125 0l0 -2.53125q2.203125 0 2.921875 -0.21875q0.734375 -0.203125 1.109375 -0.78125q0.390625 -0.578125 0.390625 -1.5q0 -0.78125 -0.421875 -2.34375q-0.40625 -1.5625 -0.40625 -2.359375q0 -1.90625 2.5 -3.203125q-2.5 -1.578125 -2.5 -3.578125q0 -0.734375 0.40625 -2.109375q0.421875 -1.390625 0.421875 -2.125q0 -1.9375 -1.75 -1.9375l-2.671875 0l0 -2.4375l2.328125 0q2.203125 0 3.796875 1.09375q1.609375 1.078125 1.609375 2.890625q0 0.828125 -0.484375 2.421875q-0.46875 1.59375 -0.46875 2.4375q0 2.34375 2.71875 2.53125l0 1.765625z" fill-rule="nonzero"/></g></svg>